<svg xmlns="http://www.w3.org/2000/svg" version="1.2"
    viewBox="272.0000000000001 228.99999999999991 493.0000000000002 454.0000000000001" width="494"
    height="455">
    <title>New Project</title>
    <style>
        .s0 { fill: #02189c }
        .s1 { fill: #7d8afd }
        .s2 { fill: #f8dcf8 }
    </style>
    <path id="Path 1" fill-rule="evenodd" class="s0" d="m272 456v227h493v-454h-493z" />
    <g id="Layer 1">
        <path id="Path 2 copy" fill-rule="evenodd" class="s1"
            d="m600.9 337.8c-0.5 0.9-24.6 1.4-67.7 1.4-49.1 0-68.4 0.5-72.4 1.8-3 1-7.6 4.1-10.2 7.1-2.7 2.9-4.8 5.6-4.8 6 0 0.4-4.2 6.7-9.2 14.1-5.1 7.4-9.2 14.1-9.2 14.9 0 0.8-0.7 1.4-1.5 1.4-0.7 0-1.4 0.8-1.3 1.8 0 1-1.3 3-2.9 4.6-1.6 1.6-2.9 3.3-2.9 3.9 0 0.6-2.6 5-5.9 9.9-3.2 4.9-6.4 9-7 9.2-0.7 0.2-1.2 1.3-1.2 2.5 0 1.2-0.6 2.1-1.4 2.1-0.8 0-1.4 0.8-1.5 1.8 0 0.9-1.5 3.7-3.3 6-1.8 2.3-5.2 7.7-7.4 12l-4.1 7.8v116.1c6 10.5 9.1 13.4 13.8 15.8l6.7 3.4c114.6 0 125.4-0.4 129.6-2.2 3-1.2 19.7-16.7 41.6-38.6 33.8-33.6 36.7-36.9 38.2-43.1 1-4.2 1.6-20.7 1.6-43.2 0-29.1-0.6-40.4-2.9-55.6-1.5-10.5-4.1-22-5.7-25.5-1.6-3.5-3.9-7.6-5.3-9-1.3-1.4-5.1-3.8-8.4-5.3-3.3-1.5-10-3.6-14.8-4.7-4.9-1.2-13.6-2.5-19.3-3.1-5.7-0.5-10.1-1.1-9.9-1.4 0.3-0.2 6.5-1.1 13.9-1.9 7.4-0.9 18.2-3 23.9-4.7 5.8-1.8 11.1-4 11.8-5 0.7-0.9 1-1.7 0.6-1.7-0.4 0-1.1 0.6-1.5 1.4z" />
        <path id="Path 3 copy 22" fill-rule="evenodd" class="s2"
            d="m613 294.6c-0.6 5.9-2 14.9-3.1 20.2-1.1 5.3-2.9 11.6-4 14.2-1 2.5-3.7 6.3-6 8.3-2.2 2.1-8.2 5.1-13.3 6.6-5 1.6-15.5 3.6-23.3 4.5-7.8 0.9-14.3 1.7-14.5 1.9-0.1 0.1 4.4 0.8 10 1.4 5.6 0.6 14.1 2.1 19 3.2 4.9 1.1 11.6 3.2 14.9 4.7 3.3 1.5 7.1 3.9 8.4 5.3 1.3 1.5 3.8 5.8 5.5 9.7 1.7 3.9 4.1 14.8 5.5 24.1l2.4 17c1.6-15.4 3-24.1 4.1-29.4 1.1-5.2 3.2-11.9 4.7-14.9 1.5-2.9 4.5-7 6.8-9 2.2-2.1 7.5-4.8 11.8-6 4.3-1.2 10.6-2.6 14.1-3 3.5-0.5 7.7-1.1 9.2-1.4 1.6-0.3 5.4-0.6 8.5-0.8l5.7-0.3c-9.9-1.8-18.8-3.3-26.2-4.5-7.4-1.2-16.3-3.7-19.8-5.4-5.2-2.6-6.9-4.7-10.2-11.7-2.9-6.1-4.7-13.7-6.5-26.9l-2.6-18.4z" />
        <path id="Path 4 copy 12" fill-rule="evenodd" class="s0"
            d="m499.7 412.7l-0.1 49.7h49.5c0-26.3 0.2-26.9 3.2-27.5 1.8-0.4 8-1 13.8-1.4 5.9-0.4 13.2-1.5 16.3-2.5 3-1 7.6-3.8 10.1-6.1q4.5-4.3 6.9-12.8c1.8-6.2 2.2-10.7 1.5-17-0.6-4.6-1.8-10.4-2.8-12.7-0.9-2.3-3.9-6.3-6.6-8.8-2.7-2.6-7.7-5.7-11.2-7-5.3-2-12.9-2.5-43.4-3l-37.1-0.5z" />
    </g>
</svg>